<?xml version="1.0" standalone="no"?>
<!DOCTYPE svg PUBLIC "-//W3C//DTD SVG 20010904//EN"
 "http://www.w3.org/TR/2001/REC-SVG-20010904/DTD/svg10.dtd">
<svg version="1.0" xmlns="http://www.w3.org/2000/svg"
 width="93.000000pt" height="93.000000pt" viewBox="0 0 93.000000 93.000000"
 preserveAspectRatio="xMidYMid meet">
<metadata>
Created by potrace 1.11, written by Peter Selinger 2001-2013
</metadata>
<g transform="translate(0.000000,93.000000) scale(0.100000,-0.100000)"
fill="#000000" stroke="none">
<path d="M411 893 c-1 -25 -16 -31 -24 -10 -4 9 -6 8 -6 -2 -1 -7 -17 -31 -36
-52 l-35 -39 0 -104 0 -104 -65 2 c-49 1 -66 5 -70 16 -8 26 13 80 39 101 31
25 33 46 6 69 -16 14 -29 16 -54 10 -49 -11 -55 -17 -82 -74 -28 -61 -30 -108
-6 -156 24 -50 71 -70 160 -70 l72 0 0 -59 0 -60 -37 -3 c-37 -3 -38 -4 -41
-45 -3 -37 0 -44 21 -54 22 -10 25 -21 38 -122 l14 -112 155 0 155 0 14 112
c12 100 16 112 37 122 20 9 24 18 24 51 0 41 -2 43 -52 54 -26 6 -28 10 -28
61 l0 55 73 0 c88 0 135 20 159 70 10 19 18 51 18 70 0 43 -42 135 -68 149
-29 15 -71 21 -78 10 -3 -5 -10 -6 -16 -3 -7 4 -8 2 -4 -4 4 -7 3 -12 -1 -12
-19 0 -10 -41 13 -59 26 -21 47 -75 39 -101 -4 -11 -21 -15 -70 -16 l-65 -2 0
104 c0 104 0 104 -34 141 -18 21 -36 45 -39 53 -3 9 -6 10 -6 3 -2 -23 -21
-14 -22 10 -1 16 -2 18 -6 5 -2 -10 -8 -18 -13 -18 -5 0 -11 8 -13 18 -4 16
-5 16 -6 0 0 -10 -5 -18 -10 -18 -5 0 -12 8 -14 18 -4 16 -5 16 -6 0 0 -10 -5
-18 -10 -18 -5 0 -12 8 -14 18 -4 13 -5 11 -6 -5z"/>
</g>
</svg>
